<?xml version="1.0" encoding="iso-8859-1"?>
<!-- Generator: Adobe Illustrator 19.0.0, SVG Export Plug-In . SVG Version: 6.00 Build 0)  -->
<svg version="1.1" id="Capa_1" xmlns="http://www.w3.org/2000/svg" xmlns:xlink="http://www.w3.org/1999/xlink" x="0px" y="0px"
	 viewBox="0 0 496 496" style="enable-background:new 0 0 496 496;" xml:space="preserve">
<g>
	<g>
		<path d="M480,369.472V336h-36.32c7.632-8.504,12.32-19.696,12.32-32c0-26.472-21.528-48-48-48h-8.344
			c-1.608-19.632-9.056-38.56-21.4-53.984l-18.136-22.664l-29.208,35.056c-9.776,11.736-23.456,19.568-38.512,22.088
			c-16.456,2.744-28.4,16.832-28.4,33.52c0,6.728,2.024,12.968,5.408,18.248C252.984,289.608,240,303.24,240,320
			c0,5.856,1.696,11.272,4.448,16H224V184c0-16.36-9.896-30.416-24-36.608V112h-64V64h64V26.048L114.296,0.336L64,0v64h24v48H24
			v35.392C9.896,153.584,0,167.64,0,184v272c0,22.056,17.944,40,40,40h144c6.352,0,12.568-1.584,18.176-4.448
			C206.088,494.328,210.84,496,216,496h256c13.232,0,24-10.768,24-24v-80C496,381.584,489.288,372.784,480,369.472z M448,352h16v16
			h-16V352z M272,304h25.984H304h8v-16h-8h-6.016c-9.912,0-17.984-8.072-17.984-17.984c0-8.832,6.32-16.288,15.024-17.744
			c18.84-3.144,35.952-12.952,48.184-27.624l16.664-20l5.888,7.368c10.088,12.6,16.256,27.984,17.816,43.984H360v16h48
			c17.648,0,32,14.352,32,32s-14.352,32-32,32h-8H272c-8.824,0-16-7.176-16-16C256,311.176,263.176,304,272,304z M432,352v16h-16
			v-16H432z M400,352v16h-16v-16H400z M368,352v16h-16v-16H368z M336,352v16h-16v-16H336z M304,352v16h-16v-16H304z M256,352h16v16
			h-16V352z M224,352h16v16h-16V352z M168,128h16v16h-16V128z M152,128v16h-16v-16H152z M80,48V16h30.832L184,37.952V48H80z
			 M104,112V64h16v48H104z M120,128v16h-16v-16H120z M72,128h16v16H72V128z M40,128h16v16H40V128z M16,184c0-13.232,10.768-24,24-24
			h144c13.232,0,24,10.768,24,24v40H16V184z M184,480H40c-13.232,0-24-10.768-24-24v-40h176v56c0,2.112,0.36,4.128,0.88,6.08
			C190.056,479.216,187.088,480,184,480z M192,392v8H16V240h192v129.472C198.712,372.784,192,381.584,192,392z M440,480H248v-56
			c0-4.416,3.584-8,8-8h176c4.416,0,8,3.584,8,8V480z M480,472c0,4.416-3.584,8-8,8h-16v-56c0-13.232-10.768-24-24-24H256
			c-13.232,0-24,10.768-24,24v56h-16c-4.416,0-8-3.584-8-8v-80c0-4.416,3.584-8,8-8h256c4.416,0,8,3.584,8,8V472z"/>
	</g>
</g>
<g>
	<g>
		<rect x="328" y="288" width="48" height="16"/>
	</g>
</g>
<g>
	<g>
		<rect x="264" y="440" width="72" height="16"/>
	</g>
</g>
<g>
	<g>
		<rect x="352" y="440" width="72" height="16"/>
	</g>
</g>
<g>
	<g>
		<rect x="64" y="368" width="96" height="16"/>
	</g>
</g>
<g>
	<g>
		<path d="M140.624,303.352L112,246.12l-28.624,57.24C81.168,307.784,80,312.728,80,317.664V320c0,17.648,14.352,32,32,32
			s32-14.352,32-32v-2.336C144,312.728,142.832,307.784,140.624,303.352z M128,320c0,8.824-7.176,16-16,16c-8.824,0-16-7.176-16-16
			v-2.336c0-2.472,0.584-4.944,1.688-7.16L112,281.88l14.312,28.616c1.104,2.224,1.688,4.696,1.688,7.168V320z"/>
	</g>
</g>
<g>
</g>
<g>
</g>
<g>
</g>
<g>
</g>
<g>
</g>
<g>
</g>
<g>
</g>
<g>
</g>
<g>
</g>
<g>
</g>
<g>
</g>
<g>
</g>
<g>
</g>
<g>
</g>
<g>
</g>
</svg>
